HIERARCHY
ROOT Hips
{
	OFFSET 0.000000 0.000000 0.000000
	CHANNELS 6 Xposition Yposition Zposition Zrotation Yrotation Xrotation
	JOINT LHipJoint
	{
		OFFSET 0.000000 0.000000 0.000000
		CHANNELS 3 Zrotation Yrotation Xrotation
		JOINT LeftUpLeg
		{
			OFFSET 1.363060 -1.794630 0.839290
			CHANNELS 3 Zrotation Yrotation Xrotation
			JOINT LeftLeg
			{
				OFFSET 2.448110 -6.726130 0.000000
				CHANNELS 3 Zrotation Yrotation Xrotation
				JOINT LeftFoot
				{
					OFFSET 2.562200 -7.039590 0.000000
					CHANNELS 3 Zrotation Yrotation Xrotation
					JOINT LeftToeBase
					{
						OFFSET 0.157640 -0.433110 2.322550
						CHANNELS 3 Zrotation Yrotation Xrotation
						End Site
						{
							OFFSET 0.000000 0.000000 0.000000
						}
					}
				}
			}
		}
	}
	JOINT RHipJoint
	{
		OFFSET 0.000000 0.000000 0.000000
		CHANNELS 3 Zrotation Yrotation Xrotation
		JOINT RightUpLeg
		{
			OFFSET -1.305520 -1.794630 0.839290
			CHANNELS 3 Zrotation Yrotation Xrotation
			JOINT RightLeg
			{
				OFFSET -2.542530 -6.985550 0.000000
				CHANNELS 3 Zrotation Yrotation Xrotation
				JOINT RightFoot
				{
					OFFSET -2.568260 -7.056230 0.000000
					CHANNELS 3 Zrotation Yrotation Xrotation
					JOINT RightToeBase
					{
						OFFSET -0.164730 -0.452590 2.363150
						CHANNELS 3 Zrotation Yrotation Xrotation
						End Site
						{
							OFFSET 0.000000 0.000000 0.000000
						}
					}
				}
			}
		}
	}
	JOINT LowerBack
	{
		OFFSET 0.000000 0.000000 0.000000
		CHANNELS 3 Zrotation Yrotation Xrotation
		JOINT Spine
		{
			OFFSET 0.028270 2.035590 -0.193380
			CHANNELS 3 Zrotation Yrotation Xrotation
			JOINT Spine1
			{
				OFFSET 0.056720 2.048850 -0.042750
				CHANNELS 3 Zrotation Yrotation Xrotation
				JOINT Neck
				{
					OFFSET 0.000000 0.000000 0.000000
					CHANNELS 3 Zrotation Yrotation Xrotation
					JOINT Neck1
					{
						OFFSET -0.054170 1.746240 0.172020
						CHANNELS 3 Zrotation Yrotation Xrotation
						JOINT Head
						{
							OFFSET 0.104070 1.761360 -0.123970
							CHANNELS 3 Zrotation Yrotation Xrotation
							End Site
							{
								OFFSET 0.000000 0.000000 0.000000
							}
						}
					}
				}
				JOINT LeftShoulder
				{
					OFFSET 0.000000 0.000000 0.000000
					CHANNELS 3 Zrotation Yrotation Xrotation
					JOINT LeftArm
					{
						OFFSET 3.362410 1.200890 -0.311210
						CHANNELS 3 Zrotation Yrotation Xrotation
						JOINT LeftForeArm
						{
							OFFSET 4.983000 -0.000000 -0.000000
							CHANNELS 3 Zrotation Yrotation Xrotation
							JOINT LeftHand
							{
								OFFSET 3.483560 -0.000000 -0.000000
								CHANNELS 3 Zrotation Yrotation Xrotation
								JOINT LeftFingerBase
								{
									OFFSET 0.000000 0.000000 0.000000
									CHANNELS 3 Zrotation Yrotation Xrotation
									JOINT LeftHandIndex1
									{
										OFFSET 0.715260 -0.000000 -0.000000
										CHANNELS 3 Zrotation Yrotation Xrotation
										End Site
										{
											OFFSET 0.000000 0.000000 0.000000
										}
									}
								}
								JOINT LThumb
								{
									OFFSET 0.000000 0.000000 0.000000
									CHANNELS 3 Zrotation Yrotation Xrotation
									End Site
									{
										OFFSET 0.000000 0.000000 0.000000
									}
								}
							}
						}
					}
				}
				JOINT RightShoulder
				{
					OFFSET 0.000000 0.000000 0.000000
					CHANNELS 3 Zrotation Yrotation Xrotation
					JOINT RightArm
					{
						OFFSET -3.136600 1.374050 -0.404650
						CHANNELS 3 Zrotation Yrotation Xrotation
						JOINT RightForeArm
						{
							OFFSET -5.241900 -0.000000 -0.000000
							CHANNELS 3 Zrotation Yrotation Xrotation
							JOINT RightHand
							{
								OFFSET -3.444170 -0.000000 -0.000000
								CHANNELS 3 Zrotation Yrotation Xrotation
								JOINT RightFingerBase
								{
									OFFSET 0.000000 0.000000 0.000000
									CHANNELS 3 Zrotation Yrotation Xrotation
									JOINT RightHandIndex1
									{
										OFFSET -0.622530 -0.000000 -0.000000
										CHANNELS 3 Zrotation Yrotation Xrotation
										End Site
										{
											OFFSET 0.000000 0.000000 0.000000
										}
									}
								}
								JOINT RThumb
								{
									OFFSET 0.000000 0.000000 0.000000
									CHANNELS 3 Zrotation Yrotation Xrotation
									End Site
									{
										OFFSET 0.000000 0.000000 0.000000
									}
								}
							}
						}
					}
				}
			}
		}
	}
}
MOTION
Frames: 6
Frame Time: 0.008333
5.487185 -2.289152 0.710900 1.487277 11.619458 -8.129556 5.689275 2.915144 -1.895429 -10.334289 15.226192 36.151035 -8.234812 2.454175 -30.734016 -0.554268 18.715889 -9.333530 -0.801429 4.091376 -13.330906 -7.714403 -1.195302 -4.942938 -21.146873 -2.210522 -33.717339 -4.927482 -9.465477 18.962244 1.806901 -11.493428 -57.397717 -1.052346 -1.869430 27.239594 -1.168589 -3.914519 -3.867843 -1.097751 -3.154488 0.928151 -0.600657 -6.113402 -7.729099 -0.912310 -2.744667 -3.960800 -0.776701 -7.580232 7.192777 -1.339056 -0.470948 -1.004433 -0.471826 1.631707 0.267349 -27.633848 -27.410675 74.060043 36.137344 -67.247360 -16.957506 2.164412 -2.153211 -17.417997 41.937687 -14.289290 -7.552555 3.145235 0.000000 0.000000 7.150042 -45.899250 22.169582 -8.296378 -2.958459 1.519960 -9.952339 -34.586349 5.526899 -4.680610 5.751638 -6.286891 -2.607080 -0.762121 27.361010 153.424500 -7.453597 -14.810623 -0.745646 0.000000 0.000000 -9.241593 29.818144 -115.552132
5.498294 -2.330715 0.840097 1.486053 11.717904 -8.163631 5.558643 2.886288 -1.895970 -10.372230 15.235260 35.705883 -8.154715 2.669146 -30.445124 -0.595434 18.813705 -8.934454 -0.768381 3.947131 -13.243870 -7.621178 -1.156528 -4.795646 -21.163731 -1.978145 -33.822521 -4.496650 -9.123742 17.496035 1.806839 -11.693236 -57.835533 -0.974323 -1.809490 27.094908 -1.335497 -3.897567 -3.862394 -1.072205 -3.199061 0.937824 -0.590947 -6.098312 -7.735770 -0.921336 -2.761106 -3.987725 -0.762855 -7.668483 7.316285 -1.380801 -0.478362 -1.090662 -0.461327 1.660973 0.262570 -27.788185 -27.567841 73.412674 36.100979 -67.268738 -16.984404 2.146713 -2.175374 -17.444359 42.096420 -14.236965 -7.594275 3.143284 0.000000 0.000000 7.116319 -45.866009 22.629520 -8.233826 -2.914132 1.504792 -10.138453 -34.463276 5.619988 -4.811470 5.741469 -6.215744 -2.599867 -0.749772 27.297077 153.448883 -7.224222 -15.043302 -0.752717 0.000000 0.000000 -9.924647 29.584564 -117.252136
5.524868 -2.355904 1.054740 1.507910 11.862942 -8.102563 5.511299 2.901127 -1.852440 -10.292521 15.291813 35.186111 -8.090928 2.888107 -30.199421 -0.637936 18.799751 -8.669044 -0.764617 3.699065 -13.543960 -7.700024 -1.173547 -4.770375 -21.539862 -1.918513 -34.174732 -4.117834 -8.798049 15.914408 1.798196 -11.786690 -58.216312 -0.896145 -1.738671 27.061203 -1.487121 -3.870682 -3.856822 -1.051633 -3.240136 0.952560 -0.584098 -6.086970 -7.753090 -0.916051 -2.776035 -3.980495 -0.738126 -7.739253 7.440916 -1.416990 -0.470829 -1.149015 -0.415053 1.728616 0.268143 -27.720625 -27.604307 72.947998 36.114399 -67.216042 -16.991693 2.131676 -2.198434 -17.442869 42.264015 -14.216757 -7.647635 3.138450 0.000000 0.000000 7.022107 -45.907234 23.029211 -8.177554 -2.872980 1.487840 -10.341825 -34.342377 5.708027 -4.953215 5.723024 -6.141996 -2.592996 -0.737782 27.234789 153.377335 -6.989929 -15.249301 -0.759369 0.000000 0.000000 -10.578650 29.390585 -118.819511
5.551387 -2.385440 1.252607 1.523192 12.005063 -8.044303 5.458599 2.911695 -1.803727 -10.197552 15.337751 34.691948 -8.005422 3.199375 -29.659319 -0.634218 18.951235 -8.084804 -0.711693 3.607099 -13.388518 -7.576121 -1.113927 -4.618263 -21.518074 -1.688780 -34.262077 -3.706923 -8.431467 14.400081 1.810068 -11.861863 -58.577858 -0.818067 -1.663736 27.036501 -1.634909 -3.841715 -3.859321 -1.031088 -3.279564 0.971035 -0.577348 -6.074471 -7.766474 -0.903854 -2.789330 -3.968517 -0.709914 -7.803424 7.557442 -1.442136 -0.451642 -1.179260 -0.337873 1.826078 0.283016 -27.459028 -27.549738 72.625755 36.156445 -67.128304 -16.988140 2.118692 -2.220709 -17.396914 42.455032 -14.160768 -7.682746 3.136917 0.000000 0.000000 6.992963 -45.881016 23.493578 -8.112697 -2.825964 1.472898 -10.510965 -34.208355 5.815556 -5.074695 5.722758 -6.056417 -2.584605 -0.724267 27.188616 153.405640 -6.708233 -15.367582 -0.763653 0.000000 0.000000 -11.101234 29.284721 -120.233955
5.601517 -2.411143 1.499248 1.523845 12.160267 -7.966809 5.398836 2.951243 -1.748304 -10.099098 15.319851 33.739147 -7.883247 3.641769 -28.777411 -0.577863 19.205202 -7.364551 -0.658223 3.404020 -13.454051 -7.414893 -1.038495 -4.457630 -21.551794 -1.502312 -34.378647 -3.292894 -8.100776 12.698207 1.813491 -11.817867 -58.868279 -0.743413 -1.581173 27.220263 -1.801170 -3.815750 -3.894049 -1.016816 -3.325832 0.975680 -0.582513 -6.072887 -7.796137 -0.896424 -2.811854 -3.986621 -0.687881 -7.863166 7.644853 -1.479078 -0.444652 -1.191111 -0.259353 1.918328 0.304552 -27.121740 -27.432365 72.484512 36.261814 -67.049034 -16.977575 2.107817 -2.252929 -17.380171 42.626011 -14.161389 -7.752314 3.129328 0.000000 0.000000 6.853448 -46.025028 23.808388 -8.069025 -2.793262 1.451516 -10.766136 -34.099888 5.862893 -5.258265 5.663929 -6.009326 -2.580125 -0.715440 27.103720 153.038971 -6.570262 -15.716354 -0.774401 0.000000 0.000000 -11.939293 29.004190 -121.725456
5.618388 -2.439881 1.776435 1.564208 12.382055 -7.816419 5.384665 2.993339 -1.648495 -9.827309 15.413205 33.668564 -7.707358 4.117650 -27.755825 -0.585356 19.216900 -6.933886 -0.663017 3.056187 -13.960123 -7.578075 -1.082727 -4.535675 -22.150238 -1.643415 -35.034172 -3.015107 -7.860258 10.953712 1.819601 -11.789066 -59.150627 -0.680703 -1.521847 27.427845 -2.018431 -3.785460 -3.929640 -0.999496 -3.366584 0.991417 -0.581952 -6.073801 -7.800432 -0.886953 -2.836779 -4.048254 -0.678242 -7.937945 7.685762 -1.542094 -0.427064 -1.292755 -0.291139 1.903741 0.302871 -27.395294 -27.500509 71.953575 36.126270 -67.034706 -16.975384 2.098135 -2.285731 -17.351440 42.800877 -14.152245 -7.823991 3.125290 0.000000 0.000000 6.790791 -46.114441 24.176302 -8.017734 -2.751973 1.431807 -10.990862 -33.966896 5.917851 -5.430223 5.613171 -5.956064 -2.574532 -0.706546 27.022387 152.577850 -6.477871 -16.055702 -0.784725 0.000000 0.000000 -12.641222 28.808409 -122.877579
